<!-- icon666.com - MILLIONS vector ICONS FREE --><svg clip-rule="evenodd" fill-rule="evenodd" image-rendering="optimizeQuality" shape-rendering="geometricPrecision" text-rendering="geometricPrecision" viewBox="0 0 1707 1707" xmlns="http://www.w3.org/2000/svg"><g id="Layer_x0020_1"><path d="m984 524c-91 0-166-74-166-165s75-165 166-165 165 74 165 165-74 165-165 165zm-540 1104c-245 0-444-199-444-444 0-126 53-240 137-321v-816c0-22 18-40 40-40h1321c22 0 40 18 40 40v129h129c22 0 40 18 40 40v1003c0 22-18 40-40 40h-785c-7 39-18 76-35 111l86 50 21-37c11-19 35-26 54-15l197 114c20 11 26 36 15 55l-82 142c-11 20-36 26-55 15l-197-114c-19-11-26-35-15-55l21-36-85-49c-80 114-213 188-363 188zm-227-826c231-138 531-39 636 208h97c-3-236-196-427-433-427-113 0-219 42-300 120zm662 288c6 29 9 58 9 89h739v-923h-89v794c0 22-17 40-40 40zm-435-270c-201 0-364 163-364 364s163 364 364 364 365-163 365-364-164-364-365-364zm0 676c-172 0-312-140-312-312s140-312 312-312 312 140 312 312-140 312-312 312zm0-544c-128 0-232 104-232 232s104 232 232 232 232-104 232-232-104-232-232-232zm517 579 128 74 42-73-128-74zm497-521v-355c-39-13-79-20-120-20-145 0-277 88-333 221 16 48 25 100 25 154zm0-439v-484h-1241v512c247-178 595-101 746 164 104-166 306-245 495-192zm-474-297c-47 0-86 38-86 85s39 85 86 85 85-38 85-85-38-85-85-85z" fill="rgb(0,0,0)"/></g></svg>